<svg width="82" height="67" viewBox="0 0 82 67" fill="none" xmlns="http://www.w3.org/2000/svg">
<g clip-path="url(#clip0_1552_7644)">
<path d="M11.5688 28.2479H7.5762L6.81894 30.0345H5.42773L8.92245 22.1172H10.2906L13.7484 30.0345H12.3261L11.5688 28.2479ZM11.0651 27.0596L9.56676 23.543L8.06837 27.0596H11.0651Z" fill="white"/>
<path d="M19.0341 24.0275V24.8954L15.5958 28.9676L19.1355 28.9791V30.0418L13.9902 30.0303V29.1486L17.4285 25.0764H14.0917V24.0137L19.0341 24.0275Z" fill="white"/>
<path d="M23.7287 30.0373V29.302C23.2987 29.8345 22.6083 30.0938 21.7381 30.0938C20.4368 30.0938 19.623 29.287 19.623 28.2277C19.623 27.1305 20.4483 26.4297 21.896 26.4181H23.7171V26.2372C23.7171 25.4788 23.2307 25.0269 22.281 25.0269C21.7047 25.0269 21.1042 25.231 20.5048 25.6378L19.9734 24.733C20.8102 24.2351 21.4211 23.9746 22.5634 23.9746C24.1125 23.9746 24.9838 24.7665 24.9954 26.0897L25.0069 30.0373H23.7287ZM23.7171 27.9223V27.3679H22.0885C21.2402 27.3679 20.8437 27.5984 20.8437 28.1747C20.8437 28.7176 21.2851 29.068 22.009 29.068C22.9368 29.0645 23.6491 28.5781 23.7171 27.9223Z" fill="white"/>
<path d="M32.201 21.6426V30.0347H30.9009V29.0055C30.471 29.7074 29.7483 30.0912 28.7858 30.0912C27.0569 30.0912 25.9043 28.836 25.9043 27.0034C25.9043 25.1938 27.0696 23.9616 28.7662 23.9616C29.739 23.9616 30.4629 24.357 30.9043 25.0578V21.6426H32.201ZM30.9009 27.0495C30.9009 25.8842 30.1425 25.0693 29.0567 25.0693C27.9709 25.0693 27.2125 25.8957 27.2021 27.0495C27.2137 28.1917 27.9594 29.0089 29.0567 29.0089C30.154 29.0089 30.9009 28.1917 30.9009 27.0495Z" fill="white"/>
<path d="M35.2997 22.298C35.2954 22.447 35.2473 22.5915 35.1613 22.7133C35.0753 22.8352 34.9554 22.929 34.8164 22.983C34.6774 23.037 34.5256 23.0489 34.3799 23.0171C34.2343 22.9853 34.1012 22.9113 33.9973 22.8043C33.8935 22.6973 33.8235 22.562 33.7961 22.4155C33.7687 22.2689 33.7851 22.1175 33.8433 21.9802C33.9014 21.8429 33.9988 21.7258 34.1231 21.6436C34.2475 21.5613 34.3933 21.5175 34.5424 21.5177C34.6443 21.516 34.7455 21.5352 34.8396 21.5741C34.9338 21.613 35.019 21.6708 35.0899 21.744C35.1609 21.8171 35.2161 21.904 35.2522 21.9993C35.2883 22.0945 35.3045 22.1962 35.2997 22.298ZM35.1845 24.0177V30.0343H33.8981V24.0177H35.1845Z" fill="white"/>
<path fill-rule="evenodd" clip-rule="evenodd" d="M19.0879 9.45312L21.8334 12.3612L22.4132 13.1691L22.9964 13.9794L22.2806 13.2879L21.5671 12.5986L19.0879 9.45312Z" fill="white"/>
<path fill-rule="evenodd" clip-rule="evenodd" d="M20.3262 8.61914L22.2695 12.1219L22.6326 13.0486L22.998 13.9765L22.4747 13.1282L21.9514 12.2787L20.3262 8.61914Z" fill="white"/>
<path fill-rule="evenodd" clip-rule="evenodd" d="M21.7402 8.15234L22.7545 12.0124L22.8755 12.9933L22.9966 13.9765L22.6992 13.0267L22.403 12.0758L21.7402 8.15234Z" fill="white"/>
<path fill-rule="evenodd" clip-rule="evenodd" d="M23.2419 8.07812L23.2592 12.0327L23.1278 13.0021L22.9976 13.9737L22.948 12.9883L22.8984 12.0016L23.2419 8.07812Z" fill="white"/>
<path fill-rule="evenodd" clip-rule="evenodd" d="M24.7262 8.41797L23.7407 12.1985L23.3695 13.0895L22.9961 13.9816L23.1978 13.0284L23.3983 12.0741L24.7262 8.41797Z" fill="white"/>
<path fill-rule="evenodd" clip-rule="evenodd" d="M26.0966 9.125L24.1752 12.471L23.5862 13.2237L22.9961 13.9763L23.4329 13.12L23.8721 12.2624L26.0966 9.125Z" fill="white"/>
<path fill-rule="evenodd" clip-rule="evenodd" d="M27.2515 10.1641L24.5279 12.852L23.7626 13.4133L22.9961 13.9758L23.6404 13.2727L24.2835 12.5707L27.2515 10.1641Z" fill="white"/>
<path fill-rule="evenodd" clip-rule="evenodd" d="M28.1194 11.4727L24.778 13.3157L23.8859 13.6476L22.9961 13.9807L23.8052 13.4817L24.612 12.9814L28.1194 11.4727Z" fill="white"/>
<path fill-rule="evenodd" clip-rule="evenodd" d="M28.6358 12.9414L24.906 13.8151L23.9516 13.8981L22.9961 13.9776L23.9113 13.7137L24.8276 13.4532L28.6358 12.9414Z" fill="white"/>
<path fill-rule="evenodd" clip-rule="evenodd" d="M28.7684 14.4862L24.9037 14.3306L23.9493 14.1554L22.9961 13.979L23.9574 13.9687L24.9186 13.9629L28.7684 14.4862Z" fill="white"/>
<path fill-rule="evenodd" clip-rule="evenodd" d="M28.509 15.9925L24.77 14.8191L23.8836 14.3984L22.9961 13.9766L23.9366 14.2232L24.8783 14.4722L28.509 15.9925Z" fill="white"/>
<path fill-rule="evenodd" clip-rule="evenodd" d="M27.8728 17.3629L24.5175 15.2525L23.7568 14.6151L22.9961 13.9766L23.8525 14.463L24.7077 14.9482L27.8728 17.3629Z" fill="white"/>
<path fill-rule="evenodd" clip-rule="evenodd" d="M26.9034 18.5017L24.1602 15.5983L23.5782 14.788L22.9961 13.9766L23.7107 14.6693L24.4253 15.3608L26.9034 18.5017Z" fill="white"/>
<path fill-rule="evenodd" clip-rule="evenodd" d="M25.669 19.3351L23.7222 15.8311L23.3592 14.9056L22.9961 13.9766L23.5205 14.8272L24.0427 15.6778L25.669 19.3351Z" fill="white"/>
<path fill-rule="evenodd" clip-rule="evenodd" d="M24.2524 19.803L23.237 15.9429L23.1136 14.9597L22.9961 13.9766L23.2935 14.9275L23.5874 15.8772L24.2524 19.803Z" fill="white"/>
<path fill-rule="evenodd" clip-rule="evenodd" d="M22.7497 19.8722L22.7324 15.9176L22.8638 14.9459L22.9964 13.9766L23.0448 14.9632L23.0932 15.9487L22.7497 19.8722Z" fill="white"/>
<path fill-rule="evenodd" clip-rule="evenodd" d="M21.2637 19.5402L22.2492 15.7597L22.6215 14.8675L22.9961 13.9766L22.7944 14.9332L22.5927 15.8864L21.2637 19.5402Z" fill="white"/>
<path fill-rule="evenodd" clip-rule="evenodd" d="M19.8984 18.8314L21.8163 15.483L22.4076 14.7292L22.9977 13.9766L22.5586 14.833L22.1206 15.6928L19.8984 18.8314Z" fill="white"/>
<path fill-rule="evenodd" clip-rule="evenodd" d="M18.7402 17.7871L21.4615 15.0981L22.2292 14.5379L22.9968 13.9766L22.3514 14.6785L21.7059 15.3804L18.7402 17.7871Z" fill="white"/>
<path fill-rule="evenodd" clip-rule="evenodd" d="M17.873 16.4881L21.2133 14.6439L22.1043 14.3097L22.9964 13.9766L22.1873 14.4768L21.3781 14.9759L17.873 16.4881Z" fill="white"/>
<path fill-rule="evenodd" clip-rule="evenodd" d="M17.3535 15.0128L21.0845 14.1402L22.04 14.0596L22.9955 13.9766L22.0792 14.2394L21.1617 14.501L17.3535 15.0128Z" fill="white"/>
<path fill-rule="evenodd" clip-rule="evenodd" d="M17.2227 13.4707L21.0874 13.6263L22.0429 13.8027L22.9973 13.9779L22.0337 13.9848L21.0724 13.9951L17.2227 13.4707Z" fill="white"/>
<path fill-rule="evenodd" clip-rule="evenodd" d="M17.4844 11.9648L21.2211 13.1359L22.1098 13.5566L22.9973 13.9785L22.0533 13.7318L21.1139 13.484L17.4844 11.9648Z" fill="white"/>
<path fill-rule="evenodd" clip-rule="evenodd" d="M18.1211 10.5918L21.4752 12.7034L22.2371 13.3396L22.9966 13.9759L22.1379 13.4895L21.2827 13.0042L18.1211 10.5918Z" fill="white"/>
<path fill-rule="evenodd" clip-rule="evenodd" d="M20.9772 8.38139C21.0481 8.35094 21.1281 8.34945 21.2 8.37724C21.272 8.40503 21.3302 8.45989 21.3622 8.53008C21.3802 8.56393 21.3913 8.60101 21.3948 8.63917C21.3983 8.67734 21.3942 8.71582 21.3827 8.75239C21.3713 8.78896 21.3526 8.82288 21.3279 8.85219C21.3032 8.8815 21.273 8.90561 21.2389 8.92312C21.1686 8.95505 21.0887 8.95808 21.0162 8.93156C20.9437 8.90504 20.8846 8.85108 20.8516 8.78135C20.8323 8.74713 20.8202 8.70931 20.816 8.67022C20.8119 8.63113 20.8159 8.59161 20.8276 8.55411C20.8394 8.51661 20.8588 8.48193 20.8845 8.45222C20.9102 8.42251 20.9418 8.3984 20.9772 8.38139Z" fill="white"/>
<path fill-rule="evenodd" clip-rule="evenodd" d="M22.4363 8.0975C22.5137 8.08523 22.5928 8.10331 22.6573 8.14798C22.7217 8.19264 22.7664 8.26044 22.782 8.33725C22.7912 8.37437 22.7927 8.41296 22.7866 8.4507C22.7805 8.48843 22.7667 8.52454 22.7463 8.55684C22.7258 8.58914 22.699 8.61697 22.6676 8.63866C22.6361 8.66034 22.6005 8.67544 22.563 8.68303C22.4857 8.69563 22.4066 8.67782 22.3421 8.63335C22.2777 8.58887 22.2329 8.52117 22.2173 8.44444C22.2081 8.40724 22.2065 8.36858 22.2127 8.33077C22.2188 8.29296 22.2325 8.25677 22.2529 8.22438C22.2734 8.19199 22.3002 8.16405 22.3317 8.14225C22.3632 8.12045 22.3987 8.10523 22.4363 8.0975Z" fill="white"/>
<path fill-rule="evenodd" clip-rule="evenodd" d="M23.937 8.2119C24.0143 8.22002 24.0857 8.25709 24.1368 8.31568C24.1879 8.37426 24.2149 8.45002 24.2125 8.52772C24.2118 8.5658 24.2034 8.60333 24.1875 8.63798C24.1717 8.67262 24.1489 8.70363 24.1206 8.72905C24.0922 8.75448 24.0589 8.77378 24.0228 8.78574C23.9866 8.79771 23.9484 8.80208 23.9105 8.79858C23.8328 8.79045 23.761 8.75305 23.7099 8.69397C23.6587 8.63489 23.632 8.55855 23.635 8.48046C23.6363 8.44269 23.6452 8.40557 23.6613 8.37136C23.6773 8.33715 23.7002 8.30655 23.7284 8.28144C23.7567 8.25632 23.7897 8.23721 23.8256 8.22525C23.8614 8.2133 23.8993 8.20876 23.937 8.2119Z" fill="white"/>
<path fill-rule="evenodd" clip-rule="evenodd" d="M25.3721 8.72176C25.4468 8.74898 25.5082 8.80388 25.5436 8.8751C25.579 8.94632 25.5857 9.02842 25.5623 9.10443C25.5509 9.1406 25.5323 9.17407 25.5075 9.20277C25.4828 9.23147 25.4524 9.2548 25.4183 9.27132C25.3841 9.28784 25.347 9.2972 25.3091 9.29883C25.2712 9.30046 25.2334 9.29431 25.198 9.28078C25.1245 9.25244 25.0645 9.19739 25.0298 9.12664C24.9952 9.0559 24.9886 8.97468 25.0113 8.89926C25.0227 8.8635 25.0412 8.8304 25.0657 8.80195C25.0902 8.77351 25.1202 8.75031 25.1539 8.73373C25.1876 8.71716 25.2243 8.70755 25.2618 8.7055C25.2993 8.70344 25.3368 8.70897 25.3721 8.72176Z" fill="white"/>
<path fill-rule="evenodd" clip-rule="evenodd" d="M26.6483 9.59563C26.7128 9.63971 26.7578 9.70699 26.7739 9.78344C26.79 9.85989 26.776 9.93961 26.7347 10.006C26.7144 10.0379 26.6876 10.0654 26.6562 10.0866C26.6247 10.1078 26.5892 10.1223 26.5519 10.1292C26.5147 10.1362 26.4763 10.1353 26.4394 10.1268C26.4024 10.1183 26.3676 10.1023 26.3371 10.0797C26.2723 10.0354 26.2269 9.96797 26.2102 9.89127C26.1935 9.81456 26.2067 9.73436 26.2472 9.66709C26.2682 9.63532 26.2955 9.60814 26.3273 9.58722C26.3592 9.56629 26.3949 9.55206 26.4324 9.54538C26.4699 9.53869 26.5084 9.5397 26.5455 9.54834C26.5826 9.55698 26.6176 9.57307 26.6483 9.59563Z" fill="white"/>
<path fill-rule="evenodd" clip-rule="evenodd" d="M27.6732 10.76C27.7259 10.8178 27.7535 10.8942 27.7501 10.9724C27.7466 11.0506 27.7124 11.1242 27.6548 11.1772C27.6261 11.2024 27.5926 11.2215 27.5563 11.2334C27.5201 11.2453 27.4817 11.2497 27.4437 11.2464C27.4057 11.243 27.3687 11.232 27.3351 11.214C27.3014 11.1959 27.2718 11.1713 27.2479 11.1415C27.1961 11.0837 27.1689 11.008 27.1721 10.9305C27.1754 10.853 27.2088 10.7798 27.2652 10.7265C27.294 10.7015 27.3275 10.6824 27.3637 10.6705C27.4 10.6586 27.4382 10.6541 27.4763 10.6572C27.5143 10.6603 27.5513 10.671 27.5851 10.6887C27.619 10.7063 27.6489 10.7306 27.6732 10.76Z" fill="white"/>
<path fill-rule="evenodd" clip-rule="evenodd" d="M28.3838 12.1434C28.4019 12.1773 28.413 12.2145 28.4165 12.2527C28.42 12.291 28.4159 12.3296 28.4043 12.3662C28.3927 12.4028 28.3739 12.4367 28.349 12.466C28.3241 12.4952 28.2936 12.5192 28.2593 12.5365C28.2068 12.5655 28.1469 12.5782 28.0871 12.5727C28.0274 12.5673 27.9707 12.5442 27.9243 12.5062C27.8779 12.4682 27.844 12.4172 27.8269 12.3597C27.8098 12.3022 27.8104 12.241 27.8285 12.1838C27.8466 12.1266 27.8814 12.0762 27.9285 12.0391C27.9755 12.0019 28.0326 11.9797 28.0924 11.9754C28.1522 11.9711 28.212 11.9847 28.2639 12.0147C28.3158 12.0447 28.3576 12.0895 28.3838 12.1434Z" fill="white"/>
<path fill-rule="evenodd" clip-rule="evenodd" d="M28.721 13.6557C28.73 13.6928 28.7315 13.7312 28.7254 13.7688C28.7192 13.8065 28.7056 13.8425 28.6853 13.8747C28.665 13.907 28.6384 13.9348 28.6071 13.9566C28.5758 13.9784 28.5405 13.9936 28.5032 14.0015C28.4258 14.0138 28.3466 13.9957 28.2822 13.951C28.2178 13.9064 28.1731 13.8386 28.1574 13.7618C28.1478 13.7245 28.1459 13.6857 28.1519 13.6477C28.1579 13.6098 28.1716 13.5734 28.1923 13.541C28.2129 13.5085 28.24 13.4807 28.2719 13.4592C28.3038 13.4377 28.3398 13.423 28.3776 13.416C28.4548 13.4035 28.5338 13.4215 28.5979 13.4663C28.662 13.511 28.7062 13.579 28.721 13.6557Z" fill="white"/>
<path fill-rule="evenodd" clip-rule="evenodd" d="M28.6703 15.1855C28.6702 15.2235 28.6621 15.261 28.6466 15.2957C28.6311 15.3303 28.6085 15.3614 28.5802 15.3868C28.552 15.4122 28.5188 15.4314 28.4827 15.4432C28.4466 15.455 28.4084 15.459 28.3706 15.4552C28.2926 15.447 28.2206 15.4095 28.1692 15.3502C28.1178 15.2909 28.0909 15.2143 28.094 15.1359C28.095 15.0981 28.1036 15.0609 28.1195 15.0265C28.1354 14.9922 28.1581 14.9614 28.1862 14.9362C28.2144 14.9109 28.2474 14.8917 28.2833 14.8797C28.3192 14.8676 28.3571 14.863 28.3948 14.8662C28.4728 14.8743 28.5446 14.9119 28.5958 14.9712C28.647 15.0306 28.6737 15.1072 28.6703 15.1855Z" fill="white"/>
<path fill-rule="evenodd" clip-rule="evenodd" d="M28.2402 16.6373C28.2294 16.6736 28.2112 16.7072 28.1867 16.7361C28.1622 16.7649 28.1319 16.7883 28.0979 16.8048C28.0638 16.8213 28.0267 16.8305 27.9889 16.8318C27.951 16.8331 27.9134 16.8266 27.8782 16.8125C27.8042 16.7858 27.7433 16.7316 27.7082 16.6612C27.673 16.5909 27.6662 16.5097 27.6892 16.4344C27.7003 16.3985 27.7187 16.3652 27.7431 16.3366C27.7676 16.308 27.7976 16.2847 27.8314 16.2682C27.8652 16.2517 27.9021 16.2423 27.9397 16.2405C27.9772 16.2388 28.0148 16.2448 28.05 16.2581C28.1239 16.2853 28.1847 16.3396 28.2201 16.4101C28.2554 16.4805 28.2626 16.5618 28.2402 16.6373Z" fill="white"/>
<path fill-rule="evenodd" clip-rule="evenodd" d="M27.4417 17.9099C27.4209 17.9414 27.394 17.9683 27.3624 17.9891C27.3309 18.0099 27.2955 18.0242 27.2584 18.0309C27.2213 18.0377 27.1831 18.0369 27.1463 18.0286C27.1095 18.0203 27.0747 18.0046 27.0441 17.9825C26.979 17.9383 26.9335 17.8708 26.917 17.7939C26.9005 17.7171 26.9142 17.6368 26.9553 17.5698C26.9756 17.5377 27.0023 17.5101 27.0338 17.4888C27.0652 17.4675 27.1007 17.453 27.138 17.446C27.1754 17.4391 27.2138 17.44 27.2508 17.4486C27.2877 17.4572 27.3226 17.4734 27.353 17.4961C27.4179 17.5406 27.4633 17.6083 27.4798 17.6853C27.4963 17.7623 27.4827 17.8426 27.4417 17.9099Z" fill="white"/>
<path fill-rule="evenodd" clip-rule="evenodd" d="M26.3448 18.9108C26.3156 18.9353 26.2819 18.9537 26.2456 18.965C26.2092 18.9764 26.171 18.9805 26.1331 18.9771C26.0952 18.9736 26.0584 18.9628 26.0247 18.9451C25.991 18.9274 25.9611 18.9032 25.9368 18.874C25.8845 18.8161 25.8568 18.7402 25.8596 18.6623C25.8624 18.5844 25.8955 18.5107 25.9518 18.4567C25.9808 18.4316 26.0146 18.4125 26.0511 18.4007C26.0877 18.3889 26.1262 18.3845 26.1645 18.3878C26.2027 18.3911 26.2399 18.4021 26.2739 18.4201C26.3078 18.4381 26.3378 18.4627 26.3621 18.4924C26.4141 18.5508 26.4414 18.6271 26.4382 18.7051C26.435 18.7832 26.4015 18.857 26.3448 18.9108Z" fill="white"/>
<path fill-rule="evenodd" clip-rule="evenodd" d="M25.0194 19.5775C24.949 19.6099 24.8687 19.6133 24.7958 19.587C24.7229 19.5607 24.6633 19.5067 24.6298 19.4368C24.6118 19.403 24.6006 19.3659 24.597 19.3277C24.5934 19.2895 24.5974 19.2509 24.6087 19.2143C24.6201 19.1776 24.6386 19.1436 24.6632 19.1141C24.6878 19.0847 24.718 19.0604 24.752 19.0426C24.8226 19.0101 24.9033 19.0068 24.9763 19.0336C25.0493 19.0604 25.1088 19.115 25.1416 19.1856C25.1597 19.2192 25.171 19.2562 25.1746 19.2942C25.1783 19.3323 25.1743 19.3707 25.163 19.4072C25.1516 19.4437 25.133 19.4776 25.1084 19.5068C25.0837 19.5361 25.0535 19.5601 25.0194 19.5775Z" fill="white"/>
<path fill-rule="evenodd" clip-rule="evenodd" d="M23.5566 19.8588C23.4791 19.8726 23.3993 19.8553 23.3346 19.8106C23.2698 19.7659 23.2253 19.6975 23.2108 19.6202C23.2007 19.583 23.1985 19.5442 23.2043 19.5061C23.2101 19.4681 23.2237 19.4317 23.2443 19.3992C23.2649 19.3666 23.292 19.3388 23.3239 19.3173C23.3558 19.2958 23.3919 19.2812 23.4298 19.2744C23.5071 19.2602 23.5869 19.2773 23.6517 19.3218C23.7164 19.3663 23.761 19.4346 23.7756 19.5118C23.7858 19.5491 23.7881 19.588 23.7824 19.6262C23.7767 19.6644 23.7632 19.701 23.7426 19.7336C23.722 19.7662 23.6948 19.7942 23.6627 19.8158C23.6307 19.8373 23.5946 19.852 23.5566 19.8588Z" fill="white"/>
<path fill-rule="evenodd" clip-rule="evenodd" d="M22.0578 19.7432C21.98 19.7353 21.9083 19.698 21.8573 19.6388C21.8062 19.5796 21.7798 19.5031 21.7835 19.4251C21.7841 19.3873 21.7925 19.35 21.8082 19.3156C21.8239 19.2811 21.8465 19.2503 21.8746 19.225C21.9027 19.1997 21.9357 19.1805 21.9716 19.1685C22.0075 19.1565 22.0455 19.152 22.0831 19.1554C22.1609 19.1635 22.2326 19.2009 22.2837 19.26C22.3349 19.3191 22.3617 19.3954 22.3586 19.4735C22.3582 19.5115 22.3498 19.5489 22.3341 19.5835C22.3184 19.6181 22.2957 19.6491 22.2674 19.6744C22.2392 19.6998 22.2059 19.719 22.1698 19.7308C22.1337 19.7427 22.0956 19.7469 22.0578 19.7432Z" fill="white"/>
<path fill-rule="evenodd" clip-rule="evenodd" d="M22.5023 13.4083C22.5756 13.3445 22.661 13.2962 22.7534 13.2661C22.8458 13.236 22.9433 13.2248 23.0401 13.2332C23.1369 13.2416 23.231 13.2694 23.3168 13.3149C23.4027 13.3604 23.4785 13.4228 23.5397 13.4982C23.6711 13.6448 23.7399 13.8369 23.7315 14.0336C23.7231 14.2302 23.6381 14.4158 23.4947 14.5506C23.4218 14.6137 23.3369 14.6616 23.2452 14.6913C23.1534 14.7211 23.0566 14.7321 22.9605 14.7237C22.8644 14.7153 22.7709 14.6877 22.6857 14.6425C22.6005 14.5974 22.5252 14.5355 22.4643 14.4607C22.3326 14.3147 22.2629 14.1232 22.27 13.9268C22.2771 13.7304 22.3604 13.5444 22.5023 13.4083Z" fill="white"/>
<path fill-rule="evenodd" clip-rule="evenodd" d="M27.402 10.0322C25.5993 7.94369 22.7846 7.32589 20.4863 8.31252V8.81967C22.6463 7.78232 25.3573 8.32866 27.077 10.3181C29.1517 12.7155 28.9972 16.2967 26.7439 18.3137C24.993 19.8813 22.4873 20.0427 20.4863 18.9085V19.4168C22.6106 20.5152 25.212 20.2997 27.0412 18.6584C29.4767 16.4811 29.6369 12.6198 27.402 10.0322Z" fill="white"/>
<path d="M42.9521 32.75L40.8705 29.9537L39.7928 31.1398V32.7534H38.7266V26.4141H39.794V29.6909L42.8173 26.4152H44.0748L41.622 29.1215L44.2384 32.75H42.9521Z" fill="white"/>
<path d="M47.8201 32.75V32.1576C47.4743 32.5829 46.9245 32.7915 46.2272 32.7915C45.1898 32.7915 44.5352 32.1484 44.5352 31.2931C44.5352 30.4148 45.1956 29.8547 46.354 29.8455H47.8109V29.7002C47.8109 29.094 47.4224 28.732 46.6583 28.732C46.146 28.7476 45.6506 28.918 45.2371 29.2207L44.8129 28.4969C45.4826 28.0981 45.9713 27.8906 46.8876 27.8906C48.1267 27.8906 48.824 28.5234 48.8332 29.5827L48.8425 32.7408L47.8201 32.75ZM47.8109 31.058V30.6154H46.5084C45.8295 30.6154 45.5126 30.7952 45.5126 31.2574C45.5126 31.6919 45.8653 31.972 46.445 31.972C47.1873 31.972 47.7567 31.5813 47.8109 31.058Z" fill="white"/>
<path d="M30.6372 34.3906L33.2502 39.6523L35.847 34.3906H37.4192V42.3033H36.1928L36.1824 36.3881L33.6801 41.4815H32.8087L30.3145 36.3927V42.3033H29.0547V34.3906H30.6372Z" fill="white"/>
<path d="M42.7618 42.2995V41.5641C42.333 42.0955 41.6427 42.356 40.7713 42.356C39.4712 42.356 38.6562 41.5492 38.6562 40.4899C38.6562 39.3926 39.4827 38.6907 40.9304 38.6803H42.7514V38.4994C42.7514 37.7409 42.2651 37.2891 41.3142 37.2891C40.7379 37.2891 40.1385 37.492 39.5392 37.9L39.0078 36.9975C39.8446 36.5007 40.4554 36.2402 41.5976 36.2402C43.1467 36.2402 44.0181 37.0321 44.0285 38.3553L44.0401 42.303L42.7618 42.2995ZM42.7514 40.1845V39.6301H41.1228C40.2744 39.6301 39.8779 39.8606 39.8779 40.4369C39.8779 40.9798 40.3195 41.3302 41.0433 41.3302C41.9712 41.3313 42.6834 40.8449 42.7514 40.1891V40.1845Z" fill="white"/>
<path d="M51.3243 38.5606V42.2997H50.023V38.9225C50.023 38.0177 49.4801 37.4633 48.5753 37.4633C47.5011 37.4748 46.8556 38.277 46.8556 39.3409V42.2997H45.5566V33.9121H46.8568V37.4587C47.2867 36.6104 48.0555 36.2369 49.0848 36.2369C50.4841 36.2415 51.3243 37.1233 51.3243 38.5606Z" fill="white"/>
<path d="M58.4959 39.2851C58.4959 41.1062 57.2177 42.3499 55.3632 42.3499C53.5086 42.3499 52.2188 41.1062 52.2188 39.2851C52.2188 37.464 53.4971 36.2422 55.3632 36.2422C57.2292 36.2422 58.4959 37.4755 58.4959 39.2851ZM53.5201 39.307C53.5201 40.4723 54.2774 41.2664 55.3643 41.2664C56.4512 41.2664 57.1969 40.4746 57.1969 39.307C57.1969 38.1394 56.4386 37.3475 55.3643 37.3475C54.2901 37.3475 53.5201 38.1509 53.5201 39.3035V39.307Z" fill="white"/>
<path d="M62.9766 41.9227C62.5318 42.2016 62.0194 42.3542 61.4944 42.3641C60.5896 42.3641 59.8093 41.8431 59.8093 40.611V37.4886H58.9609V36.5169H59.8093V34.8652H61.099V36.5169H62.874V37.4886H61.099V40.3701C61.099 40.9914 61.3365 41.1839 61.7433 41.1839C62.0608 41.1671 62.3703 41.078 62.6481 40.9234L62.9766 41.9227Z" fill="white"/>
<path d="M65.5901 37.2713C65.0806 37.2713 64.7072 37.4407 64.7072 37.8706C64.7072 38.9794 67.908 38.3801 67.8976 40.562C67.8976 41.7953 66.8003 42.3497 65.5924 42.3497C64.7095 42.3497 63.7713 42.0558 63.1719 41.5129L63.6329 40.585C64.2012 41.0531 64.9105 41.3162 65.6466 41.3319C66.201 41.3319 66.6309 41.1394 66.6309 40.6876C66.6309 39.4543 63.4635 40.1436 63.475 37.9721C63.475 36.7515 64.5377 36.2305 65.6915 36.2305C66.4499 36.2305 67.2521 36.461 67.795 36.8414L67.3201 37.8049C66.7994 37.4802 66.2033 37.2963 65.5901 37.2713Z" fill="white"/>
<path d="M72.5333 42.2995V41.5641C72.1034 42.0955 71.4141 42.356 70.5428 42.356C69.2426 42.356 68.4277 41.5492 68.4277 40.4899C68.4277 39.3926 69.253 38.6907 70.7018 38.6803H72.5218V38.4994C72.5218 37.7409 72.0354 37.2891 71.0856 37.2891C70.5093 37.2891 69.91 37.492 69.3106 37.9L68.7781 36.9975C69.6149 36.5007 70.2258 36.2402 71.368 36.2402C72.9183 36.2402 73.7885 37.0321 73.8 38.3553L73.8116 42.303L72.5333 42.2995ZM72.5218 40.1845V39.6301H70.8931C70.0448 39.6301 69.6495 39.8606 69.6495 40.4369C69.6495 40.9798 70.0909 41.3302 70.8148 41.3302C71.7415 41.3313 72.4549 40.8449 72.5218 40.1891V40.1845Z" fill="white"/>
<path d="M75.4961 36.291L77.172 41.0363L78.8237 36.2968H80.1238L77.8186 42.3146H76.4712L74.1406 36.2968L75.4961 36.291Z" fill="white"/>
<path d="M6.8011 37.6766H3.60836L2.99748 39.1069H1.88867L4.6849 32.7676H5.77988L8.54615 39.1069H7.40507L6.8011 37.6766ZM6.39423 36.7268L5.20012 33.9121L4.00601 36.7268H6.39423Z" fill="white"/>
<path d="M17.1449 36.1077V39.1045H16.1076V36.397C16.1076 35.6639 15.6731 35.2201 14.9677 35.2201C14.1435 35.2478 13.6468 35.8817 13.6468 36.7185V39.0987H12.6094V36.397C12.6094 35.6639 12.1841 35.2201 11.4776 35.2201C10.6454 35.2478 10.1382 35.8817 10.1382 36.7185V39.0987H9.10547V34.2888H10.1428V35.2201C10.4782 34.5424 11.0926 34.252 11.889 34.252C12.7489 34.252 13.3379 34.6773 13.5638 35.4103C13.8715 34.6035 14.5135 34.252 15.3918 34.252C16.4822 34.252 17.1449 34.9585 17.1449 36.1077Z" fill="white"/>
<path d="M21.0173 34.252V35.2478C20.0491 35.1936 19.4337 35.7642 19.3518 36.5871V39.1033H18.3145V34.2888H19.3518V35.2478C19.678 34.5966 20.2566 34.252 21.0173 34.252Z" fill="white"/>
<path d="M22.7728 32.9166C22.7694 33.0357 22.731 33.1512 22.6624 33.2486C22.5937 33.346 22.4979 33.421 22.3868 33.4642C22.2758 33.5075 22.1545 33.5171 22.038 33.4917C21.9216 33.4664 21.8152 33.4074 21.7321 33.3219C21.649 33.2365 21.593 33.1285 21.571 33.0114C21.5489 32.8943 21.5619 32.7733 21.6083 32.6635C21.6546 32.5537 21.7323 32.46 21.8316 32.3941C21.9309 32.3282 22.0474 32.2931 22.1666 32.293C22.248 32.2919 22.3288 32.3073 22.404 32.3385C22.4792 32.3696 22.5473 32.4158 22.6041 32.4742C22.6608 32.5325 22.7051 32.6019 22.7341 32.678C22.7631 32.754 22.7763 32.8352 22.7728 32.9166ZM22.6818 34.2928V39.1073H21.6502V34.2928H22.6818Z" fill="white"/>
<path d="M26.7183 38.7982C26.3626 39.021 25.953 39.1429 25.5334 39.1509C24.8084 39.1509 24.1848 38.7348 24.1848 37.7482V35.2504H23.5059V34.4724H24.1848V33.1504H25.2164V34.4724H26.6376V35.2504H25.2164V37.5557C25.2164 38.0536 25.4066 38.2069 25.7316 38.2069C25.9856 38.1937 26.2331 38.1228 26.4555 37.9994L26.7183 38.7982Z" fill="white"/>
<path fill-rule="evenodd" clip-rule="evenodd" d="M65.0971 6.71394C64.7606 6.55026 64.5081 6.67936 64.2776 6.78309C62.0876 7.76858 59.8977 7.72823 57.6051 7.06318C55.7702 6.53182 53.8972 6.06502 51.9827 5.90134C48.5456 5.61089 45.4704 6.80038 42.4909 8.30685C41.1896 8.96499 39.9102 9.66923 38.4775 9.99196C37.2097 10.2778 36.7371 9.79372 36.9792 8.51547C37.1797 7.43778 36.9377 7.00439 35.9003 6.64247C35.6193 6.54455 35.3288 6.47655 35.0335 6.43961C31.3452 5.9901 27.7375 6.51338 24.169 7.39398L23.8809 7.52768C23.8809 7.52768 27.915 7.26373 29.6658 10.8057C31.8823 10.4726 34.108 10.5625 36.3383 10.8726C37.2466 10.9993 37.6062 11.4811 37.2696 12.4067C37.1397 12.7822 37.0602 13.1733 37.0333 13.5697C36.9411 14.7718 37.4759 15.2294 38.647 14.962C39.0357 14.882 39.414 14.7575 39.7742 14.5909C41.3798 13.8094 42.9946 13.0487 44.4804 12.039C46.0594 10.9659 47.7699 10.2605 49.7098 10.0554C52.287 9.78334 54.8665 9.9862 57.4415 9.8744C59.6695 9.77643 61.8779 9.53668 63.7682 8.1766C64.2984 7.79163 64.9012 7.43317 65.0971 6.71394Z" fill="#F08700"/>
<path fill-rule="evenodd" clip-rule="evenodd" d="M65.0974 14.8663C64.7608 14.7026 64.5084 14.8317 64.2779 14.9354C62.0879 15.9209 59.8979 15.8806 57.6054 15.2155C55.7704 14.683 53.8974 14.2162 51.9772 14.0537C48.5401 13.7632 45.4649 14.9527 42.4854 16.4592C41.1841 17.1162 39.9047 17.8216 38.472 18.1443C37.2041 18.4302 36.7316 17.9461 36.9736 16.6678C37.1742 15.5901 36.9321 15.1567 35.8948 14.7948C35.6138 14.6965 35.3233 14.6281 35.028 14.5908C33.5093 14.4126 31.977 14.3801 30.4521 14.494C30.3968 15.0703 29.9842 18.0095 27.2617 19.4802C27.5937 19.3914 27.9268 19.3038 28.261 19.2255C30.9386 18.5938 33.6322 18.6492 36.3293 19.0249C37.2376 19.1517 37.5972 19.6335 37.2606 20.559C37.1306 20.9345 37.0511 21.3256 37.0243 21.722C36.9321 22.923 37.4669 23.3818 38.638 23.1144C39.0268 23.0323 39.405 22.9063 39.7653 22.7386C41.3708 21.9572 42.9857 21.1964 44.4714 20.1867C46.0504 19.1125 47.7609 18.4083 49.7008 18.2031C52.278 17.9311 54.8576 18.1339 57.4325 18.0221C59.6605 17.9242 61.8689 17.6833 63.7592 16.3243C64.2986 15.9382 64.9014 15.5809 65.0974 14.8663Z" fill="#00953D"/>
<path fill-rule="evenodd" clip-rule="evenodd" d="M5.9707 0V1.74621H16.3373L7.59819 17.7779L9.02628 18.8095L19.4632 0H5.9707Z" fill="white"/>
<path fill-rule="evenodd" clip-rule="evenodd" d="M29.3397 0H21.2299L15.332 10.6352L16.6967 11.3094L22.1128 1.74621H29.3397V0Z" fill="white"/>
<path d="M11.2163 48.9868H12.1914L12.1672 55.3631H11.1921L11.2036 52.5715L8.33589 52.5599L8.32552 55.3504H7.35156L7.37692 48.9707H8.35088L8.3405 51.7139L11.207 51.7254L11.2163 48.9868Z" fill="white"/>
<path d="M13.6467 51.7168V50.819C14.0201 50.6053 14.5127 50.4997 15.1243 50.502C16.3791 50.5074 17.0042 51.1186 16.9996 52.3358L16.9881 55.3821H16.066V54.8151C15.8186 55.2177 15.3856 55.4179 14.767 55.4156C14.3649 55.4325 13.9725 55.2895 13.6755 55.0179C13.5409 54.8896 13.4351 54.7341 13.365 54.5619C13.2948 54.3896 13.262 54.2045 13.2686 54.0186C13.2602 53.8104 13.3037 53.6035 13.3953 53.4163C13.4869 53.2292 13.6235 53.0678 13.7931 52.9467C14.1396 52.6923 14.6256 52.5663 15.2511 52.5686H16.0464V52.2943C16.0464 51.9658 15.9703 51.718 15.8159 51.5509C15.6614 51.3837 15.3963 51.2984 15.031 51.2973C14.5376 51.2928 14.0545 51.4392 13.6467 51.7168ZM16.0533 53.2406H15.3341C14.9814 53.2406 14.714 53.3086 14.5342 53.4458C14.4497 53.5057 14.3809 53.585 14.3336 53.6771C14.2862 53.7692 14.2617 53.8713 14.2622 53.9748C14.2569 54.0714 14.2726 54.168 14.3082 54.2579C14.3438 54.3479 14.3985 54.429 14.4685 54.4958C14.6388 54.6338 14.8549 54.7025 15.0736 54.6883C15.2034 54.696 15.3335 54.678 15.4563 54.6353C15.5792 54.5925 15.6924 54.5259 15.7894 54.4393C15.8766 54.3545 15.945 54.2523 15.9901 54.1393C16.0352 54.0263 16.0559 53.905 16.051 53.7835L16.0533 53.2406Z" fill="white"/>
<path d="M19.1853 50.5993V51.4407C19.4204 50.8498 19.8411 50.5551 20.4474 50.5566C20.5456 50.558 20.6435 50.5677 20.7401 50.5855V51.4937C20.596 51.4337 20.441 51.4039 20.2849 51.4061C20.1274 51.4047 19.972 51.4426 19.8329 51.5165C19.6938 51.5904 19.5754 51.6978 19.4884 51.8291C19.2755 52.1226 19.1643 52.4775 19.1714 52.84L19.1622 55.3942H18.2344L18.2528 50.597L19.1853 50.5993Z" fill="white"/>
<path d="M28.9554 51.7903L28.9437 54.8458H28.9311L28.9403 54.9115C28.3893 55.3065 27.7008 55.5028 26.8748 55.5005C25.8759 55.4959 25.0744 55.1993 24.4705 54.6107C23.8665 54.0221 23.5665 53.2241 23.5704 52.2167C23.5704 51.2393 23.8807 50.4475 24.5016 49.8412C25.1224 49.2349 25.9044 48.9337 26.8472 48.9375C27.5849 48.9375 28.2022 49.0816 28.6994 49.3698V50.3725C28.1569 50.0294 27.5271 49.8497 26.8852 49.855C26.2044 49.855 25.6531 50.0706 25.2313 50.5016C24.8094 50.9327 24.5965 51.5044 24.5926 52.2167C24.5926 52.949 24.7966 53.5253 25.2047 53.9456C25.6127 54.366 26.1814 54.5796 26.9106 54.5865C27.2801 54.5894 27.6465 54.5201 27.9894 54.3825L27.9963 52.6224H26.7008V51.7799L28.9554 51.7903Z" fill="white"/>
<path d="M31.172 48.7461L31.1616 51.4616C31.4351 50.8692 31.9314 50.5745 32.6507 50.5776C32.8582 50.5689 33.0654 50.6035 33.2588 50.6791C33.4523 50.7547 33.6279 50.8696 33.7746 51.0167C34.0573 51.3087 34.1976 51.7129 34.1953 52.2293L34.1837 55.4462H33.2559L33.2673 52.4183C33.2863 52.1419 33.1976 51.8688 33.0196 51.6564C32.9362 51.5667 32.8344 51.4959 32.7212 51.4489C32.6081 51.402 32.4862 51.38 32.3638 51.3844C32.2071 51.3841 32.052 51.4155 31.9078 51.4767C31.7636 51.5379 31.6332 51.6277 31.5247 51.7406C31.2811 51.9796 31.1581 52.3449 31.1558 52.8367L31.1466 55.4382H30.2188L30.2441 48.753L31.172 48.7461Z" fill="white"/>
<path d="M35.5606 51.8028V50.9037C35.9325 50.6916 36.4247 50.5864 37.0371 50.5879C38.2919 50.5925 38.9174 51.2038 38.9136 52.4217L38.902 55.4681H37.98V54.8998C37.7333 55.3032 37.3007 55.5034 36.6821 55.5003C36.483 55.5093 36.2841 55.4789 36.0968 55.4109C35.9095 55.3428 35.7375 55.2385 35.5906 55.1038C35.4561 54.9753 35.3503 54.8199 35.2799 54.6477C35.2096 54.4755 35.1764 54.2904 35.1826 54.1045C35.1743 53.8964 35.2178 53.6894 35.3094 53.5023C35.4009 53.3152 35.5376 53.1538 35.707 53.0326C36.0551 52.7783 36.5415 52.6522 37.1662 52.6545H37.9604V52.3802C37.9604 52.0513 37.8835 51.8035 37.7298 51.6368C37.5762 51.47 37.3149 51.3855 36.9461 51.3832C36.4522 51.3777 35.9685 51.5242 35.5606 51.8028ZM37.9673 53.3265H37.248C36.8938 53.3265 36.6272 53.3949 36.4481 53.5317C36.3635 53.5914 36.2945 53.6707 36.2471 53.7628C36.1998 53.8549 36.1754 53.9571 36.1761 54.0607C36.1706 54.1573 36.1862 54.254 36.2218 54.344C36.2575 54.4339 36.3123 54.5151 36.3824 54.5817C36.5529 54.7193 36.769 54.7876 36.9876 54.773C37.1171 54.781 37.247 54.7631 37.3696 54.7206C37.4923 54.6781 37.6053 54.6117 37.7022 54.5252C37.7895 54.4402 37.858 54.3378 37.9033 54.2246C37.9485 54.1114 37.9695 53.99 37.965 53.8682L37.9673 53.3265Z" fill="white"/>
<path d="M41.0996 50.6802V51.5227C41.3347 50.9303 41.755 50.6356 42.3605 50.6387C42.4592 50.6394 42.5575 50.6491 42.6544 50.6675V51.5758C42.5137 51.5166 42.3622 51.4871 42.2095 51.4893C42.0521 51.4882 41.8969 51.5263 41.7578 51.6001C41.6188 51.674 41.5003 51.7813 41.4131 51.9123C41.2005 52.2059 41.0897 52.5608 41.0973 52.9232L41.088 55.4774H40.1602L40.1786 50.6802H41.0996Z" fill="white"/>
<path d="M49.5818 49.133V49.9467L47.9071 49.9398L47.8852 55.5035H46.9112L46.932 49.9398L45.2676 49.9329V49.1191L49.5818 49.133Z" fill="white"/>
<path d="M50.5303 49.6602C50.4761 49.6065 50.4336 49.5423 50.4052 49.4715C50.3769 49.4007 50.3633 49.3249 50.3654 49.2487C50.3641 49.1717 50.3782 49.0952 50.4069 49.0237C50.4356 48.9523 50.4783 48.8873 50.5326 48.8326C50.5858 48.7773 50.65 48.7338 50.7211 48.7048C50.7921 48.6758 50.8685 48.662 50.9452 48.6643C51.0226 48.6632 51.0995 48.6777 51.1712 48.707C51.2429 48.7363 51.308 48.7797 51.3625 48.8347C51.4171 48.8896 51.46 48.955 51.4887 49.027C51.5174 49.0989 51.5313 49.1759 51.5296 49.2533C51.5301 49.3291 51.5152 49.4041 51.4856 49.4739C51.4561 49.5437 51.4126 49.6067 51.3578 49.659C51.3035 49.7141 51.2384 49.7575 51.1667 49.7864C51.0949 49.8153 51.0179 49.8293 50.9406 49.8273C50.8643 49.8294 50.7885 49.8156 50.7179 49.7868C50.6473 49.758 50.5834 49.7149 50.5303 49.6602ZM50.4553 55.512L50.4738 50.716H51.4109L51.3924 55.512H50.4553Z" fill="white"/>
<path d="M53.6816 50.7223V51.5649C53.9167 50.9725 54.337 50.6774 54.9425 50.6797C55.0412 50.6815 55.1395 50.6915 55.2364 50.7097V51.6179C55.0957 51.5586 54.9442 51.5292 54.7915 51.5315C54.6342 51.5303 54.4791 51.5683 54.3401 51.6419C54.2011 51.7155 54.0825 51.8226 53.9951 51.9533C53.7825 52.2473 53.6717 52.6026 53.6793 52.9653L53.67 55.5195H52.7422L52.7606 50.7223H53.6816Z" fill="white"/>
<path d="M56.0716 51.877V50.9791C56.4443 50.7662 56.9364 50.6606 57.5481 50.6621C58.8029 50.6675 59.428 51.2788 59.4234 52.4959L59.4119 55.5423H58.4898V54.974C58.2416 55.3775 57.809 55.578 57.1919 55.5757C56.7898 55.593 56.3972 55.45 56.1004 55.1781C55.9659 55.0496 55.8601 54.8941 55.7898 54.7219C55.7195 54.5497 55.6863 54.3646 55.6924 54.1787C55.6842 53.9706 55.7278 53.7637 55.8194 53.5766C55.9109 53.3895 56.0475 53.2281 56.2168 53.1068C56.5649 52.8525 57.0509 52.7265 57.6749 52.7288H58.4702V52.4544C58.4702 52.1256 58.3933 51.8777 58.2397 51.711C58.086 51.5443 57.8247 51.4597 57.4559 51.4574C56.9625 51.4529 56.4795 51.5993 56.0716 51.877ZM58.4783 53.4007H57.759C57.4052 53.4007 57.1389 53.4687 56.958 53.6059C56.8734 53.6656 56.8047 53.745 56.7575 53.8371C56.7103 53.9293 56.6862 54.0314 56.6871 54.1349C56.6816 54.2316 56.6972 54.3282 56.7328 54.4182C56.7684 54.5082 56.8233 54.5893 56.8934 54.6559C57.0633 54.7938 57.2791 54.8622 57.4974 54.8473C57.6272 54.8555 57.7573 54.8379 57.8802 54.7953C58.0031 54.7528 58.1163 54.6862 58.2132 54.5994C58.3004 54.5146 58.3688 54.4124 58.4141 54.2994C58.4594 54.1864 58.4804 54.0652 58.476 53.9436L58.4783 53.4007Z" fill="white"/>
<path d="M61.6086 50.7603V51.5833C61.8944 50.9909 62.3939 50.6962 63.107 50.6992C63.5803 50.6992 63.9553 50.8456 64.2319 51.1384C64.5086 51.4312 64.6457 51.8261 64.6434 52.3233L64.6307 55.5679H63.7086L63.7202 52.5411C63.7202 52.2069 63.6376 51.951 63.4724 51.7735C63.3866 51.6843 63.2828 51.6143 63.168 51.5682C63.0531 51.5221 62.9298 51.5009 62.8061 51.5061C62.6465 51.5047 62.4884 51.5378 62.3428 51.6033C62.1971 51.6687 62.0674 51.7649 61.9624 51.8853C61.7319 52.1396 61.614 52.4973 61.6086 52.9584L61.5901 55.5587H60.668L60.6865 50.7615L61.6086 50.7603Z" fill="white"/>
<path d="M69.0066 50.7868H69.9287L69.9114 55.1771C69.9114 55.9148 69.6997 56.4707 69.2763 56.8449C68.8529 57.2191 68.315 57.4047 67.6626 57.4016C67.1253 57.4164 66.5918 57.3075 66.1032 57.0835V56.1464C66.5408 56.4229 67.0506 56.5633 67.5681 56.5498C68.5079 56.5498 68.9797 56.0888 68.9835 55.1667V54.6745C68.8459 54.9178 68.6436 55.1183 68.3991 55.2537C68.1546 55.3892 67.8774 55.4544 67.5981 55.4422C67.3379 55.4439 67.0803 55.3909 66.8419 55.2864C66.6036 55.1819 66.39 55.0284 66.215 54.8359C65.8308 54.4348 65.6387 53.8681 65.6387 53.1358C65.6387 52.4296 65.8208 51.8483 66.185 51.3919C66.3521 51.1726 66.5692 50.9965 66.8183 50.8782C67.0673 50.7599 67.341 50.7029 67.6165 50.7119C68.2536 50.7119 68.7146 50.985 68.9997 51.5314L69.0066 50.7868ZM67.7721 54.6515C67.9338 54.6524 68.0937 54.6191 68.2415 54.5537C68.3893 54.4884 68.5216 54.3924 68.6297 54.2723C68.8725 54.0172 68.9951 53.6595 68.9974 53.1992C68.9974 52.6321 68.8821 52.2122 68.6516 51.9394C68.5526 51.8121 68.4258 51.7092 68.281 51.6383C68.1362 51.5674 67.9772 51.5304 67.8159 51.5302C67.6443 51.5236 67.4737 51.56 67.3197 51.6361C67.1657 51.7122 67.0332 51.8255 66.9342 51.9659C66.7244 52.2587 66.6195 52.6448 66.6195 53.1243C66.6195 53.6222 66.7348 54.001 66.9653 54.2608C67.0632 54.3808 67.1861 54.478 67.3255 54.5455C67.4648 54.613 67.6173 54.6492 67.7721 54.6515Z" fill="white"/>
<path d="M71.2931 51.9415V51.0424C71.6654 50.8292 72.1587 50.7243 72.7696 50.7266C74.0244 50.7312 74.6499 51.3421 74.646 52.5593L74.6345 55.6068H73.7124V55.0385C73.4658 55.4419 73.0332 55.6421 72.4146 55.639C72.2155 55.648 72.0166 55.6176 71.8293 55.5496C71.642 55.4815 71.47 55.3772 71.3231 55.2425C71.1884 55.1139 71.0825 54.9583 71.0122 54.7859C70.9419 54.6135 70.9088 54.4282 70.915 54.2421C70.9068 54.0341 70.9505 53.8274 71.042 53.6404C71.1335 53.4535 71.2701 53.2923 71.4395 53.1713C71.7876 52.9169 72.274 52.7909 72.8987 52.7932H73.6928V52.5189C73.6928 52.1904 73.6168 51.9426 73.4623 51.7743C73.3079 51.606 73.0439 51.5219 72.6785 51.5208C72.1846 51.5163 71.7012 51.6631 71.2931 51.9415ZM73.6997 53.4641H72.9805C72.6278 53.4641 72.3604 53.5309 72.1806 53.6692C72.0959 53.7289 72.027 53.8082 71.9796 53.9003C71.9323 53.9925 71.9079 54.0947 71.9086 54.1983C71.9032 54.2949 71.9188 54.3915 71.9544 54.4815C71.99 54.5714 72.0448 54.6526 72.1149 54.7192C72.2854 54.8568 72.5014 54.9251 72.72 54.9106C72.8496 54.9182 72.9794 54.9003 73.102 54.8578C73.2246 54.8153 73.3377 54.749 73.4346 54.6628C73.522 54.5777 73.5905 54.4753 73.6357 54.3622C73.681 54.249 73.702 54.1276 73.6974 54.0058L73.6997 53.4641Z" fill="white"/>
<path d="M0 60.1553V59.1617L1.54565 58.25H2.38821L2.36401 64.4372H1.44192L1.46151 59.262L0 60.1553Z" fill="white"/>
<path d="M3.60732 59.4282V58.5291C4.00489 58.3018 4.45645 58.1859 4.91438 58.1937C5.54448 58.1937 6.0374 58.3516 6.39318 58.6675C6.56412 58.8121 6.7005 58.9932 6.79225 59.1974C6.884 59.4017 6.9288 59.6239 6.92338 59.8477C6.92985 60.1638 6.84241 60.4747 6.67212 60.741C6.48973 61.0057 6.22951 61.2071 5.92753 61.3173C6.25571 61.3881 6.55118 61.5657 6.76778 61.8222C6.97442 62.0862 7.08062 62.415 7.06746 62.75C7.07287 62.9879 7.02603 63.2242 6.93024 63.442C6.83445 63.6599 6.69204 63.8541 6.51306 64.011C6.14653 64.3406 5.63208 64.5043 4.96971 64.502C4.42509 64.5167 3.88449 64.4047 3.39062 64.1746V63.2664C3.86046 63.521 4.38691 63.653 4.92129 63.6502C5.29358 63.6502 5.58635 63.5603 5.79843 63.3747C5.90115 63.2869 5.98309 63.1773 6.0383 63.0539C6.09351 62.9305 6.12064 62.7964 6.11771 62.6613C6.12416 62.5247 6.09581 62.3888 6.03532 62.2662C5.97484 62.1436 5.88421 62.0384 5.77193 61.9605C5.54141 61.7956 5.1887 61.7115 4.72189 61.7103H4.34384V60.9162H4.72535C5.0375 60.9279 5.345 60.8377 5.60134 60.6592C5.7155 60.5796 5.80797 60.4727 5.87037 60.3483C5.93276 60.224 5.96312 60.0859 5.95865 59.9469C5.96822 59.8186 5.9473 59.69 5.89762 59.5714C5.84794 59.4528 5.7709 59.3476 5.6728 59.2645C5.44334 59.1004 5.16496 59.0192 4.88326 59.034C4.42906 59.041 3.98633 59.1778 3.60732 59.4282Z" fill="white"/>
<path d="M78.0409 59.6948V58.7957C78.4385 58.5684 78.89 58.4525 79.348 58.4603C79.9781 58.4603 80.471 58.6182 80.8268 58.9341C80.9977 59.0787 81.1341 59.2598 81.2258 59.464C81.3176 59.6683 81.3624 59.8905 81.357 60.1143C81.3634 60.4304 81.276 60.7413 81.1057 61.0076C80.9233 61.2723 80.6631 61.4737 80.3611 61.5839C80.6893 61.6547 80.9848 61.8323 81.2014 62.0888C81.408 62.3528 81.5142 62.6816 81.501 63.0166C81.5065 63.2545 81.4596 63.4908 81.3638 63.7086C81.268 63.9265 81.1256 64.1207 80.9466 64.2776C80.5801 64.6072 80.0657 64.7709 79.4033 64.7686C78.8587 64.7833 78.3181 64.6713 77.8242 64.4412V63.533C78.2941 63.7876 78.8205 63.9196 79.3549 63.9168C79.7272 63.9168 80.0199 63.8269 80.232 63.6413C80.3347 63.5535 80.4167 63.4439 80.4719 63.3205C80.5271 63.1971 80.5542 63.063 80.5513 62.9279C80.5577 62.7913 80.5294 62.6554 80.4689 62.5328C80.4084 62.4102 80.3178 62.305 80.2055 62.2271C79.975 62.0622 79.6223 61.9781 79.1555 61.9769H78.7774V61.1828H79.1589C79.4711 61.1945 79.7786 61.1043 80.0349 60.9258C80.1491 60.8462 80.2416 60.7393 80.304 60.6149C80.3664 60.4906 80.3967 60.3525 80.3922 60.2135C80.4018 60.0852 80.3809 59.9566 80.3312 59.838C80.2815 59.7194 80.2045 59.6142 80.1064 59.5311C79.8769 59.367 79.5985 59.2858 79.3168 59.3006C78.8626 59.3076 78.4199 59.4444 78.0409 59.6948Z" fill="white"/>
<path d="M8.60703 58.9347L8.60126 60.4735C8.60126 60.7424 8.7292 60.8773 8.98508 60.878C9.12161 60.8837 9.25605 60.8431 9.3666 60.7628V61.248C9.22852 61.3176 9.07503 61.3509 8.92054 61.3448C8.34346 61.3448 8.05569 61.0517 8.05723 60.4654V58.937H7.625V58.5175H8.0676V57.834H8.61394V58.5175H9.34815V58.9359L8.60703 58.9347Z" fill="white"/>
<path d="M10.517 57.4199V59.0036C10.676 58.6578 10.9653 58.4861 11.3849 58.4884C11.5057 58.4836 11.6263 58.5038 11.739 58.5479C11.8516 58.5919 11.954 58.6588 12.0396 58.7443C12.1254 58.8398 12.1913 58.9515 12.2335 59.0728C12.2756 59.1941 12.2932 59.3226 12.2851 59.4508L12.2781 61.3273H11.7376L11.7445 59.5615C11.7555 59.4005 11.7038 59.2415 11.6004 59.1177C11.5517 59.0654 11.4923 59.0241 11.4263 58.9967C11.3603 58.9693 11.2892 58.9563 11.2177 58.9587C11.1251 58.9571 11.0332 58.9745 10.9476 59.0098C10.8619 59.045 10.7844 59.0975 10.7198 59.1638C10.5784 59.3037 10.507 59.5169 10.5054 59.8035V61.3204H9.96484L9.97982 57.4199H10.517Z" fill="white"/>
<path d="M13.1172 62.3539V61.5586L15.4224 61.5678V62.3631L13.1172 62.3539Z" fill="white"/>
<path d="M16.0859 60.2139V59.2215L17.6339 58.3086H18.4753L18.4522 64.497H17.5301L17.5497 59.3217L16.0859 60.2139Z" fill="white"/>
<path d="M20.8622 59.1166L20.853 60.7418C21.0641 60.6943 21.2797 60.6696 21.4961 60.668C22.1401 60.668 22.6441 60.8386 23.0084 61.1797C23.3726 61.5209 23.5539 61.9774 23.5524 62.5491C23.5524 63.1684 23.3468 63.6613 22.9358 64.0279C22.5247 64.3944 21.958 64.5765 21.2356 64.5742C20.5856 64.5742 20.05 64.4651 19.6289 64.2468V63.3478C20.0719 63.6081 20.5791 63.7386 21.0927 63.7247C22.0917 63.7247 22.5911 63.3228 22.5911 62.5191C22.5991 62.3763 22.5732 62.2337 22.5155 62.1029C22.4578 61.9721 22.37 61.8568 22.2592 61.7664C21.999 61.5738 21.68 61.4773 21.3567 61.4933C20.8646 61.4938 20.3789 61.6049 19.9355 61.8183L19.9493 58.3086L23.1559 58.3213V59.1281L20.8622 59.1166Z" fill="white"/>
<path d="M25.0345 58.9933V60.5332C25.0345 60.8006 25.1624 60.9351 25.4183 60.9366C25.555 60.9432 25.6897 60.9025 25.7998 60.8214V61.3066C25.6615 61.3767 25.5076 61.4105 25.3526 61.4046C24.7756 61.4046 24.4882 61.1111 24.4905 60.524L24.4962 58.9968H24.0605V58.5772H24.4962V57.8926H25.0426V58.5772H25.7768V58.9968L25.0345 58.9933Z" fill="white"/>
<path d="M26.9431 57.4844V59.0669C27.1021 58.7219 27.3914 58.5502 27.811 58.5517C27.9321 58.5469 28.053 58.5672 28.1658 58.6115C28.2787 58.6557 28.3812 58.7229 28.4668 58.8087C28.5526 58.9043 28.6184 59.016 28.6603 59.1373C28.7023 59.2587 28.7196 59.3872 28.7112 59.5153L28.6997 61.3906H28.1591L28.166 59.6259C28.1771 59.4646 28.1255 59.3052 28.0219 59.181C27.9732 59.1287 27.9139 59.0876 27.8478 59.0603C27.7818 59.0331 27.7106 59.0204 27.6393 59.0231C27.548 59.0226 27.4575 59.0407 27.3735 59.0763C27.2894 59.112 27.2136 59.1645 27.1505 59.2306C27.0076 59.37 26.9362 59.5764 26.935 59.8691L26.9292 61.386H26.3887L26.4037 57.4867L26.9431 57.4844Z" fill="white"/>
<path d="M36.2736 64.5683L35.778 63.0053L33.2042 62.9949L32.6878 64.5544H31.6562L33.8876 58.1816H35.1647L37.3167 64.566L36.2736 64.5683ZM33.4728 62.1824L35.5163 62.1904L35.4126 61.8688C35.176 61.1227 34.9839 60.5053 34.8363 60.0166C34.6865 59.5267 34.5953 59.2225 34.5654 59.1026L34.5182 58.9228C34.4475 59.2186 34.1347 60.1979 33.5799 61.8608L33.4728 62.1824Z" fill="white"/>
<path d="M41.2642 59.7908H42.1863L42.1679 64.5868H41.2458V63.7639C40.9915 64.3494 40.492 64.641 39.7474 64.6387C39.2733 64.6387 38.8983 64.4969 38.6225 64.2134C38.3466 63.9298 38.2094 63.543 38.211 63.0527L38.2237 59.7793H39.1607L39.1492 62.8256C39.1492 63.153 39.2283 63.4039 39.3866 63.5783C39.4725 63.6671 39.5764 63.7365 39.6913 63.7818C39.8062 63.8272 39.9295 63.8474 40.0528 63.8411C40.2162 63.848 40.379 63.8178 40.5291 63.753C40.6792 63.6881 40.8127 63.5902 40.9196 63.4665C41.1386 63.2152 41.2489 62.8591 41.2504 62.398L41.2642 59.7908Z" fill="white"/>
<path d="M46.6047 59.8123H47.5268L47.5152 64.2014C47.5152 64.9391 47.3032 65.4951 46.879 65.8693C46.4548 66.2435 45.917 66.4291 45.2653 66.426C44.7276 66.4408 44.1937 66.332 43.7047 66.1079V65.1708C44.1419 65.4512 44.6527 65.5952 45.172 65.5846C46.1125 65.5846 46.5843 65.1235 46.5874 64.2014V63.7093C46.4494 63.9544 46.2461 64.1563 46 64.2924C45.7539 64.4286 45.4748 64.4937 45.1939 64.4804C44.9328 64.4826 44.6741 64.4297 44.4348 64.3253C44.1955 64.2208 43.9809 64.0671 43.805 63.8741C43.4208 63.4715 43.2306 62.9044 43.2344 62.1729C43.2344 61.4675 43.4166 60.8865 43.7808 60.4301C43.9477 60.2108 44.1645 60.0345 44.4134 59.916C44.6622 59.7975 44.9357 59.7402 45.2112 59.7489C45.849 59.7489 46.31 60.0221 46.5943 60.5684L46.6047 59.8123ZM45.3691 63.6782C45.5308 63.6789 45.6908 63.6453 45.8386 63.5798C45.9864 63.5142 46.1186 63.4181 46.2266 63.2978C46.471 63.0435 46.5939 62.6861 46.5955 62.2259C46.5955 61.6572 46.4802 61.2373 46.2497 60.9661C46.1508 60.8386 46.0241 60.7354 45.8793 60.6643C45.7345 60.5932 45.5754 60.5561 45.414 60.5557C45.2424 60.5499 45.072 60.5867 44.9181 60.6629C44.7642 60.7392 44.6316 60.8525 44.5323 60.9926C44.3164 61.2846 44.2076 61.6688 44.2061 62.1452C44.2061 62.6439 44.3214 63.0227 44.5519 63.2817C44.6502 63.4042 44.7745 63.5034 44.9158 63.5719C45.0572 63.6405 45.212 63.6768 45.3691 63.6782Z" fill="white"/>
<path d="M51.7593 59.8315H52.6871L52.6744 64.631H51.7466V63.808C51.4922 64.3935 50.9928 64.6851 50.2482 64.6828C49.7756 64.6828 49.401 64.5411 49.1244 64.2575C48.8478 63.974 48.7106 63.5871 48.7129 63.0968L48.7244 59.8223H49.6615L49.65 62.8686C49.65 63.196 49.7295 63.4468 49.8886 63.6213C49.9744 63.7101 50.0783 63.7796 50.1932 63.8249C50.3081 63.8702 50.4314 63.8904 50.5548 63.8841C50.7181 63.8908 50.8809 63.8607 51.031 63.7958C51.181 63.731 51.3145 63.6331 51.4215 63.5095C51.6405 63.257 51.75 62.902 51.7523 62.441L51.7593 59.8315Z" fill="white"/>
<path d="M56.727 60.0097V60.8512C56.3623 60.6532 55.9511 60.5568 55.5363 60.5722C55.3492 60.5613 55.164 60.6141 55.0108 60.7221C54.9487 60.7676 54.8986 60.8274 54.8645 60.8964C54.8304 60.9654 54.8133 61.0416 54.8148 61.1186C54.8147 61.1616 54.8194 61.2045 54.8286 61.2465C54.8392 61.2901 54.8567 61.3318 54.8805 61.3698C54.9059 61.4102 54.9289 61.4447 54.9508 61.4736C54.9815 61.5095 55.0182 61.5399 55.0592 61.5635C55.0989 61.5888 55.1374 61.6161 55.1744 61.6453C55.2189 61.6768 55.2664 61.7038 55.3162 61.726L55.4626 61.7974C55.4937 61.8136 55.549 61.8389 55.6274 61.8735C55.7058 61.9081 55.7611 61.9323 55.7922 61.945C56.1136 62.0783 56.4093 62.2667 56.6659 62.5017C56.772 62.6092 56.8546 62.7375 56.9085 62.8786C56.9625 63.0196 56.9866 63.1704 56.9794 63.3212C56.9875 63.5134 56.9499 63.7048 56.8698 63.8797C56.7896 64.0546 56.6692 64.208 56.5184 64.3274C56.211 64.5695 55.8003 64.6894 55.2862 64.687C54.7976 64.7018 54.3123 64.6028 53.8685 64.3977V63.5183C54.2773 63.7821 54.7525 63.9248 55.239 63.9298C55.4421 63.9437 55.6443 63.8916 55.8153 63.7811C55.8794 63.737 55.9317 63.6777 55.9675 63.6085C56.0033 63.5394 56.0215 63.4625 56.0204 63.3846C56.0201 63.3146 56.0058 63.2454 55.9783 63.1811C55.9508 63.1167 55.9106 63.0586 55.8602 63.01C55.7672 62.909 55.6572 62.8251 55.5352 62.7622C55.4199 62.7092 55.2378 62.6239 54.9739 62.5098C54.2231 62.1986 53.8493 61.7429 53.8524 61.1428C53.8453 60.9512 53.8851 60.7608 53.9683 60.5881C54.0514 60.4154 54.1754 60.2655 54.3296 60.1515C54.6733 59.9041 55.0901 59.7792 55.5133 59.7965C56.0335 59.7988 56.4381 59.8699 56.727 60.0097Z" fill="white"/>
<path d="M59.1549 60.5757L59.1446 63.2152C59.1446 63.6763 59.3625 63.9068 59.8039 63.9068C60.0393 63.9143 60.27 63.8415 60.4585 63.7005V64.5326C60.2209 64.6524 59.9569 64.7103 59.691 64.7009C58.7013 64.6979 58.2064 64.1953 58.2064 63.1933L58.2155 60.5723H57.4688V59.853H58.2168V58.6797H59.1526V59.853H60.4114V60.5723L59.1549 60.5757Z" fill="white"/>
<path d="M64.7771 63.8725L67.4638 63.8828V64.6897L63.5 64.6747V63.9082C64.2363 63.386 64.9128 62.7841 65.5171 62.1136C66.0649 61.495 66.34 60.9302 66.3423 60.4192C66.3423 60.0596 66.239 59.783 66.0323 59.5893C65.794 59.385 65.4859 59.2805 65.1724 59.2977C64.6687 59.2977 64.172 59.4833 63.6856 59.8602V58.9381C64.1519 58.5888 64.7226 58.4073 65.305 58.4229C65.8267 58.4067 66.3361 58.5826 66.7365 58.9174C67.1146 59.2432 67.3021 59.7042 67.299 60.3005C67.2982 61.4147 66.4576 62.6053 64.7771 63.8725Z" fill="white"/>
<path d="M68.2423 61.5773C68.2423 60.6068 68.439 59.8384 68.8324 59.272C69.0025 59.0043 69.239 58.7853 69.5191 58.6364C69.7991 58.4875 70.1129 58.4138 70.43 58.4226C70.75 58.4144 71.0668 58.489 71.3495 58.6393C71.6322 58.7895 71.8713 59.0103 72.0436 59.2801C72.4332 59.8495 72.6253 60.6229 72.6199 61.6003C72.6199 62.5647 72.4278 63.3365 72.0436 63.9159C71.8713 64.1913 71.6293 64.4163 71.3421 64.5681C71.0549 64.7199 70.7327 64.7931 70.4081 64.7804C70.0894 64.7862 69.7747 64.7082 69.4956 64.5543C69.2165 64.4004 68.9826 64.1759 68.8175 63.9032C68.4279 63.3185 68.2362 62.5432 68.2423 61.5773ZM69.5448 59.8749C69.3096 60.2752 69.1909 60.8442 69.1886 61.5819C69.1863 62.3195 69.2992 62.8924 69.5275 63.3004C69.758 63.7069 70.0519 63.9113 70.4092 63.9136C70.7996 63.9136 71.1069 63.7131 71.3313 63.3119C71.5557 62.9108 71.6683 62.3372 71.669 61.5911C71.669 60.8411 71.5565 60.2683 71.3313 59.8726C71.1062 59.4768 70.8034 59.2786 70.423 59.2778C70.0727 59.277 69.7799 59.4761 69.5448 59.8749Z" fill="white"/>
<path d="M74.6208 63.9113L77.3076 63.9205V64.7273L73.3438 64.7123V63.9458C74.0793 63.4227 74.7556 62.8209 75.3608 62.1512C75.9118 61.5311 76.1872 60.9652 76.1872 60.4534C76.1872 60.0938 76.0847 59.8183 75.8773 59.6247C75.6389 59.4203 75.3308 59.3159 75.0173 59.3331C74.5136 59.3331 74.0169 59.5187 73.5305 59.8944V58.9723C73.9955 58.625 74.5638 58.4439 75.1441 58.4582C75.6672 58.4406 76.1786 58.6162 76.5804 58.9516C76.9584 59.2781 77.1459 59.7392 77.1428 60.3347C77.1436 61.4512 76.3029 62.6434 74.6208 63.9113Z" fill="white"/>
<path d="M6.31641 46.5098H75.6956" stroke="white" stroke-width="0.283584" stroke-miterlimit="10"/>
</g>
<defs>
<clipPath id="clip0_1552_7644">
<rect width="82" height="67" fill="white"/>
</clipPath>
</defs>
</svg>
