<?xml version="1.0" standalone="no"?>
<!DOCTYPE svg PUBLIC "-//W3C//DTD SVG 20010904//EN"
 "http://www.w3.org/TR/2001/REC-SVG-20010904/DTD/svg10.dtd">
<svg version="1.0" xmlns="http://www.w3.org/2000/svg"
 width="535.000000pt" height="366.000000pt" viewBox="0 0 535.000000 366.000000"
 preserveAspectRatio="xMidYMid meet">

<g transform="translate(0.000000,366.000000) scale(0.100000,-0.100000)"
fill="#000000" stroke="none">
<path d="M2953 3605 c-11 -8 -37 -43 -56 -77 -50 -91 -167 -253 -181 -250 -6
1 -28 20 -48 42 -50 52 -98 87 -128 95 -39 9 -74 -25 -125 -124 -68 -131 -65
-129 -107 -103 -57 35 -104 25 -159 -35 -42 -45 -117 -212 -90 -201 13 5 161
179 161 189 0 19 21 8 31 -17 5 -15 21 -40 35 -57 28 -33 26 -53 -13 -104 -13
-18 -21 -33 -17 -33 4 0 45 22 93 49 47 27 103 54 124 61 44 14 51 44 12 54
-14 4 -30 4 -35 1 -11 -7 -90 24 -90 35 0 5 15 26 33 48 19 22 49 70 68 106
19 36 37 66 40 66 4 0 12 -21 19 -47 7 -27 19 -55 27 -64 8 -9 19 -34 25 -55
13 -49 23 -62 66 -80 l35 -14 -7 -58 c-7 -63 -3 -61 39 20 14 25 28 65 31 88
5 30 18 53 44 79 21 20 48 57 60 82 35 68 122 190 133 186 5 -1 16 -27 24 -57
7 -29 27 -77 43 -105 46 -81 45 -82 -57 -58 -22 5 -23 5 -9 -41 8 -26 44 -91
80 -145 60 -91 69 -100 124 -124 98 -44 117 -34 55 29 -35 36 -37 39 -16 42
23 3 40 33 68 119 9 29 24 62 33 72 17 20 18 20 65 -19 42 -34 45 -39 27 -45
-32 -10 -24 -20 35 -39 30 -9 57 -21 60 -27 9 -13 81 -49 99 -49 22 0 -91 147
-152 198 -28 23 -66 49 -87 57 -33 14 -39 14 -67 0 -37 -18 -36 -18 -80 60
-56 99 -167 236 -204 251 -40 17 -35 17 -61 -1z"/>
<path d="M2554 2381 c-287 -46 -526 -258 -606 -536 -29 -103 -32 -286 -4 -385
38 -140 130 -286 233 -373 136 -113 275 -167 453 -174 151 -6 233 11 369 78
85 42 118 65 181 128 143 142 209 292 218 493 9 238 -68 426 -244 586 -74 68
-210 141 -311 167 -75 19 -220 27 -289 16z m169 -321 c262 -43 413 -316 317
-573 -57 -152 -207 -256 -370 -257 -123 0 -213 36 -293 116 -228 230 -115 641
196 709 78 17 80 17 150 5z"/>
<path d="M4170 2380 c-305 -45 -549 -273 -621 -580 -19 -83 -15 -251 9 -342
65 -241 251 -438 487 -514 105 -34 275 -43 385 -20 139 29 358 159 359 212 1
23 -165 214 -185 214 -7 0 -35 -15 -63 -34 -108 -73 -227 -98 -348 -72 -87 18
-146 51 -206 115 -75 80 -108 169 -108 291 1 169 84 303 231 374 61 29 72 31
175 31 99 0 116 -3 168 -27 32 -15 78 -42 104 -60 l45 -33 94 100 c58 62 94
108 94 122 0 48 -171 158 -313 202 -77 23 -224 34 -307 21z"/>
<path d="M877 2364 c-4 -4 -7 -326 -7 -715 0 -635 2 -707 16 -713 24 -9 907
-7 922 2 9 7 12 42 10 143 l-3 134 -307 3 -308 2 -2 573 -3 572 -156 3 c-85 1
-158 -1 -162 -4z"/>
<path d="M1272 262 l3 -107 30 -2 c17 -1 22 1 13 3 -16 5 -18 19 -18 104 0 79
-3 99 -15 104 -14 5 -15 -9 -13 -102z"/>
<path d="M2262 358 c-7 -7 -12 -18 -12 -24 0 -7 -7 -20 -16 -28 -8 -9 -11 -16
-5 -16 7 0 11 -27 11 -70 0 -56 3 -70 15 -70 12 0 15 14 15 70 0 69 0 70 28
71 l27 1 -25 7 c-14 4 -25 12 -24 19 4 44 4 44 30 38 17 -5 23 -3 19 4 -8 14
-48 13 -63 -2z"/>
<path d="M3610 350 c0 -5 5 -10 10 -10 6 0 10 5 10 10 0 6 -4 10 -10 10 -5 0
-10 -4 -10 -10z"/>
<path d="M1521 318 c-5 -13 -6 -27 -3 -32 3 -5 4 -32 3 -59 -2 -50 10 -77 36
-77 10 0 11 4 3 19 -5 11 -10 42 -10 70 l0 51 35 0 34 0 3 -67 c2 -52 7 -69
18 -71 13 -2 15 7 10 57 -7 70 -4 81 18 82 12 0 11 3 -5 9 -15 6 -21 15 -17
25 4 8 1 15 -6 15 -6 0 -14 -9 -17 -20 -4 -15 -14 -20 -39 -20 -27 0 -34 4
-34 20 0 27 -19 25 -29 -2z"/>
<path d="M4173 320 c-3 -11 -10 -20 -17 -20 -8 0 -7 -3 1 -8 7 -4 13 -36 15
-72 3 -64 3 -65 32 -65 18 0 31 6 33 15 4 12 3 13 -5 1 -18 -26 -32 0 -32 59
0 53 2 59 23 63 l22 4 -22 2 c-16 1 -23 7 -23 21 0 11 -5 20 -11 20 -6 0 -13
-9 -16 -20z"/>
<path d="M1930 300 c-13 -8 -13 -10 1 -10 9 0 21 -10 26 -22 10 -21 12 -21 18
-5 4 9 2 24 -5 32 -15 17 -20 18 -40 5z"/>
<path d="M2132 297 c21 -16 48 -78 48 -106 0 -11 -8 -25 -17 -30 -10 -6 -13
-11 -7 -11 16 0 42 31 49 61 8 31 -18 89 -39 89 -8 0 -23 3 -33 6 -17 5 -17 5
-1 -9z"/>
<path d="M2652 297 c21 -16 48 -78 48 -106 0 -11 -8 -25 -17 -30 -10 -6 -13
-11 -7 -11 16 0 42 31 49 61 8 31 -18 89 -39 89 -8 0 -23 3 -33 6 -17 5 -17 5
-1 -9z"/>
<path d="M2815 297 c-17 -13 -16 -14 6 -13 23 1 24 -2 27 -66 2 -52 6 -68 17
-68 11 0 15 11 15 38 0 20 3 46 6 57 3 12 -3 29 -16 43 -24 26 -30 27 -55 9z"/>
<path d="M2913 300 c-29 -12 -30 -20 -2 -13 29 8 39 -12 39 -79 0 -45 3 -58
15 -58 24 0 21 121 -3 143 -21 19 -19 19 -49 7z"/>
<path d="M3077 304 c-4 -4 3 -12 16 -18 17 -9 23 -22 25 -54 3 -47 -10 -72
-38 -72 -20 0 -30 19 -30 56 0 13 -9 33 -20 44 l-20 20 0 -95 c0 -78 3 -95 15
-95 11 0 15 11 15 42 0 33 3 39 12 30 13 -13 57 -16 75 -4 31 20 38 108 9 131
-17 13 -52 22 -59 15z"/>
<path d="M3213 300 c-13 -5 -23 -16 -23 -25 0 -22 27 -18 33 5 6 24 42 27 51
4 10 -27 7 -42 -11 -47 -17 -4 -17 -5 0 -6 9 0 17 -2 17 -3 0 -2 7 -21 15 -43
l14 -40 1 63 c0 87 -32 118 -97 92z"/>
<path d="M3350 292 c-29 -23 -18 -47 32 -73 33 -17 39 -25 35 -44 -3 -21 -2
-23 15 -14 28 15 18 40 -30 72 -47 32 -53 53 -19 67 15 6 17 9 6 9 -9 1 -27
-7 -39 -17z"/>
<path d="M3485 297 c-26 -19 -13 -65 20 -73 34 -8 58 -43 43 -61 -13 -16 4
-17 20 -1 23 23 13 47 -27 67 -53 27 -62 58 -21 74 13 5 13 6 -1 6 -8 1 -23
-5 -34 -12z"/>
<path d="M3754 280 c35 -42 45 -99 21 -117 -11 -7 -14 -13 -8 -13 13 0 38 29
47 54 12 34 -12 83 -46 95 -43 15 -43 15 -14 -19z"/>
<path d="M3894 295 c-16 -13 -16 -14 -1 -9 32 11 47 -14 47 -77 0 -46 3 -59
15 -59 25 0 21 114 -5 140 -24 24 -30 25 -56 5z"/>
<path d="M4070 303 c33 -13 41 -59 13 -66 -17 -4 -17 -5 0 -6 9 0 17 -2 17 -3
0 -2 7 -21 15 -43 l14 -40 1 67 c0 58 -3 69 -22 82 -12 9 -29 16 -38 15 -13 0
-13 -1 0 -6z"/>
<path d="M1366 281 c-26 -29 -18 -99 13 -120 23 -15 24 -15 13 6 -17 31 -15
85 4 111 12 18 13 22 1 22 -8 0 -22 -9 -31 -19z"/>
<path d="M1445 265 c0 -27 4 -35 18 -35 22 0 23 33 1 54 -8 9 -16 16 -17 16
-1 0 -2 -16 -2 -35z"/>
<path d="M1727 282 c-35 -38 -9 -132 36 -132 9 0 9 2 -1 8 -21 14 -26 77 -9
111 18 36 2 44 -26 13z"/>
<path d="M1810 279 c9 -15 8 -24 -1 -35 -9 -12 -7 -14 15 -14 24 0 26 3 20 23
-8 27 -23 47 -36 47 -5 0 -4 -9 2 -21z"/>
<path d="M2076 278 c-35 -49 -5 -129 47 -127 12 0 16 3 9 6 -34 13 -58 125
-29 136 9 4 9 6 0 6 -6 1 -19 -9 -27 -21z"/>
<path d="M2444 292 c-21 -14 -36 -54 -29 -80 8 -33 33 -62 52 -62 12 0 12 3
-1 16 -19 19 -22 104 -4 122 13 13 0 16 -18 4z"/>
<path d="M2515 275 c0 -14 5 -25 12 -25 20 0 24 18 7 34 -20 20 -19 21 -19 -9z"/>
<path d="M2596 278 c-35 -49 -5 -129 47 -127 12 0 16 3 9 6 -34 13 -58 125
-29 136 9 4 9 6 0 6 -6 1 -19 -9 -27 -21z"/>
<path d="M3425 290 c3 -5 11 -10 16 -10 6 0 7 5 4 10 -3 6 -11 10 -16 10 -6 0
-7 -4 -4 -10z"/>
<path d="M3555 290 c3 -5 11 -10 16 -10 6 0 7 5 4 10 -3 6 -11 10 -16 10 -6 0
-7 -4 -4 -10z"/>
<path d="M3610 225 c0 -60 3 -75 15 -75 12 0 15 15 15 75 0 60 -3 75 -15 75
-12 0 -15 -15 -15 -75z"/>
<path d="M3686 278 c-35 -50 -7 -128 46 -128 20 0 20 1 5 13 -25 18 -47 86
-36 114 11 29 5 29 -15 1z"/>
<path d="M4021 287 c-6 -8 -8 -17 -4 -20 11 -12 21 -7 26 13 6 23 -5 26 -22 7z"/>
<path d="M4294 292 c-16 -10 -34 -48 -34 -70 0 -22 36 -72 53 -72 8 0 7 4 -1
12 -15 15 -16 92 -2 119 11 19 4 25 -16 11z"/>
<path d="M4365 264 c0 -26 4 -34 18 -34 10 0 17 8 17 18 0 11 -8 26 -17 35
-17 15 -18 13 -18 -19z"/>
<path d="M1870 216 c0 -52 3 -66 15 -66 11 0 15 12 15 51 0 31 -6 56 -15 65
-13 14 -15 8 -15 -50z"/>
<path d="M2760 211 c0 -48 3 -61 15 -61 11 0 15 12 15 49 0 31 -5 53 -15 61
-13 11 -15 5 -15 -49z"/>
<path d="M3840 211 c0 -48 3 -61 15 -61 11 0 15 12 15 49 0 31 -5 53 -15 61
-13 11 -15 5 -15 -49z"/>
<path d="M3202 214 c-15 -10 -22 -24 -20 -37 4 -29 58 -36 79 -10 13 16 12 17
-2 5 -19 -14 -49 -6 -49 13 0 8 7 21 16 29 20 21 5 21 -24 0z"/>
<path d="M4022 214 c-15 -10 -22 -24 -20 -37 4 -29 58 -36 79 -10 13 17 13 17
-4 4 -16 -12 -20 -12 -34 2 -15 15 -15 18 2 37 22 24 9 26 -23 4z"/>
<path d="M2513 175 c-13 -29 -3 -33 20 -7 20 22 21 32 5 32 -7 0 -18 -11 -25
-25z"/>
<path d="M1452 169 c-12 -19 -11 -19 8 -9 11 6 20 15 20 20 0 17 -15 11 -28
-11z"/>
<path d="M1820 176 c0 -8 -6 -17 -12 -19 -8 -3 -8 -6 -2 -6 6 -1 19 8 29 19
16 18 16 20 2 20 -10 0 -17 -6 -17 -14z"/>
<path d="M4370 169 c-11 -19 -10 -20 9 -9 22 11 29 30 11 30 -5 0 -14 -9 -20
-21z"/>
<path d="M3330 171 c0 -9 24 -21 43 -21 6 0 2 7 -9 15 -22 17 -34 19 -34 6z"/>
<path d="M3465 171 c-3 -5 4 -13 16 -16 28 -9 33 -2 9 13 -11 6 -21 8 -25 3z"/>
</g>
</svg>
